<?xml version="1.0" encoding="UTF-8"?><svg id="Layer_1" xmlns="http://www.w3.org/2000/svg" viewBox="0 0 476.15 111.36"><defs><style>.cls-1{fill:#fff;}</style></defs><path class="cls-1" d="M476.15,81.34h-8.82V30.14c1.45-.1,2.92-.04,4.38-.04,1.48,0,2.96,0,4.44,.01v51.24Z"/><path class="cls-1" d="M74.58,74.14c-.26-1.05-.26-35.82,0-36.83,.33-.02,.69-.06,1.04-.06,11.51,0,23.03,0,34.54,0,.22,0,.44,.01,.67,.02,.36,.01,.54,.22,.57,.56,.03,.33,.03,.66,.03,1,0,11.27,0,22.55,0,33.82,0,.15,0,.3,0,.44-.03,1.06-.07,1.12-1.16,1.12-11.62,0-23.25,0-34.87,0-.26,0-.51-.04-.82-.06Z"/><path class="cls-1" d="M261.36,81.31V30.17c.32-.03,.64-.08,.95-.08,6.18,0,12.36-.03,18.54,.03,3.61,.03,7.15,.58,10.57,1.77,7.4,2.58,12.19,7.63,14.19,15.21,1.47,5.57,1.54,11.2,.1,16.77-2.17,8.36-7.56,13.68-15.81,16.14-2.89,.86-5.85,1.3-8.86,1.32-6.29,.04-12.58,.02-18.87,.02-.22,0-.44-.02-.8-.04Zm9.75-42.98c-.25,.85-.28,33.7-.03,34.77,.24,.02,.49,.07,.74,.07,2.77,0,5.55,.04,8.32-.04,1.4-.04,2.81-.19,4.18-.48,6.07-1.28,10.16-4.77,11.76-10.87,1.1-4.19,1.05-8.42-.15-12.59-1.36-4.71-4.37-7.97-9-9.68-1.96-.72-3.99-1.14-6.07-1.19-3.07-.07-6.14-.05-9.21-.06-.18,0-.36,.04-.54,.06Z"/><path class="cls-1" d="M234.77,45.59h-9.86c-.07-.37-.14-.69-.2-1.02-.5-3.19-2.28-5.38-5.21-6.67-1.65-.73-3.41-.98-5.19-1.03-2.12-.05-4.23,.13-6.2,.99-.84,.37-1.66,.84-2.36,1.42-2.52,2.05-2.91,6.66,.88,8.66,1.59,.84,3.3,1.31,5.04,1.66,3.41,.69,6.83,1.32,10.23,2.02,2.85,.59,5.54,1.62,7.92,3.33,3.35,2.41,5.24,5.67,5.54,9.79,.62,8.29-3.95,14.45-11.96,16.81-3.7,1.09-7.49,1.31-11.32,.99-2.9-.24-5.71-.83-8.37-2.02-6.2-2.76-9.79-7.55-11.01-14.17-.15-.79-.21-1.6-.31-2.38,.92-.27,8.82-.31,9.96-.06,.07,.4,.13,.84,.21,1.26,.76,3.85,2.98,6.56,6.57,8.08,3.83,1.62,7.78,1.63,11.73,.45,.73-.22,1.43-.6,2.09-1.01,3.59-2.21,3.84-7.99-.09-10.33-1.95-1.16-4.09-1.66-6.28-2.1-3.34-.66-6.68-1.27-10-2.02-2.44-.55-4.67-1.61-6.73-3.05-7.02-4.92-7.09-14.3-2.54-19.68,2.17-2.56,4.88-4.3,8.03-5.34,5.95-1.97,11.95-1.99,17.89-.04,6.88,2.26,11.07,7.79,11.58,15.01,0,.11-.02,.22-.04,.42Z"/><path class="cls-1" d="M358.73,50.16v-4.53c2.92-.02,5.82,0,8.84,0,.03,.43,.07,.78,.07,1.14,0,11.28,0,22.55,0,33.83,0,2.27-.3,4.5-1.04,6.65-1.56,4.53-4.61,7.63-9.14,9.15-5.03,1.69-10.13,1.72-15.16,.03-4.43-1.49-7.46-4.43-8.64-9.05-.28-1.11-.49-2.23-.3-3.53,2.95-.06,5.89-.01,8.88-.03,.07,.26,.15,.46,.18,.67,.44,3.31,2.17,5.23,5.44,5.85,1.92,.37,3.84,.29,5.7-.37,3.04-1.08,4.99-3.67,5.08-6.87,.08-2.77,.08-5.54,.11-8.37-.14,.12-.31,.22-.42,.36-3.25,4.13-7.61,5.42-12.65,4.84-7.17-.82-12-5.62-13.43-12.81-.83-4.18-.71-8.33,.87-12.33,1.99-5.01,5.48-8.47,10.77-9.88,2.93-.78,5.88-.62,8.76,.31,2.22,.71,3.98,2.09,5.35,3.96,.21,.29,.43,.58,.74,.99Zm.44,12.11c0-2.45-.6-4.74-1.73-6.55-3.48-5.54-11.4-5.58-14.77,.03-2.49,4.16-2.47,8.54-.14,12.77,1.64,2.99,4.37,4.46,7.8,4.38,3.36-.08,5.8-1.76,7.42-4.65,1.03-1.85,1.41-3.87,1.42-5.97Z"/><path class="cls-1" d="M190.41,81.29c-.55,.03-.87,.06-1.19,.06-3.52,0-7.03-.02-10.55,.02-.71,0-1.14-.23-1.56-.79-5.2-6.91-10.43-13.81-15.65-20.7-.35-.47-.71-.93-1.05-1.37-.15,.03-.25,.01-.29,.06-1.52,1.56-3.03,3.14-4.56,4.69-.4,.4-.33,.88-.33,1.35,0,5.1,0,10.2,0,15.3v1.38h-9.27c-.22-.79-.29-49.62-.06-51.11h9.3c0,1.4,.02,2.79,.03,4.17,0,1.4,0,2.81,0,4.21v4.32c0,1.4,0,2.81,0,4.21,.01,1.38-.05,2.77,.06,4.39,.71-.84,1.22-1.5,1.79-2.12,1.58-1.71,3.18-3.41,4.77-5.1,4.21-4.47,8.43-8.93,12.62-13.41,.52-.56,1.06-.79,1.83-.78,3.29,.04,6.59,.02,9.88,.02h.94c.05,.11,.08,.14,.08,.18,0,.03,0,.07-.02,.1-.04,.06-.07,.13-.12,.18-6.73,6.97-13.45,13.94-20.18,20.91-.02,.03-.03,.07-.12,.25,7.8,9.77,15.65,19.59,23.63,29.58Z"/><path class="cls-1" d="M74.15,.01V36.86c-.38,.04-.73,.12-1.08,.12-11.55,0-23.1,0-34.65,0-1.2,0-1.26-.06-1.21-1.27,.49-11.07,5.05-20.15,13.51-27.26,5.06-4.26,10.94-6.85,17.46-7.95,1.56-.26,3.16-.34,4.74-.48,.36-.03,.73,0,1.23,0Z"/><path class="cls-1" d="M0,37.32H36.83c.03,.47,.09,.93,.09,1.39,0,7.8,0,15.6,0,23.4,0,3.55,0,7.1,0,10.65,0,.43,0,.86,0,1.28C18.48,74.94-.46,58.37,0,37.32Z"/><path class="cls-1" d="M74.1,74.53c.33,20.42-17.41,37.24-36.82,36.82-.04-.37-.11-.76-.11-1.15,0-11.46,0-22.91,0-34.37,0-.22,0-.44,.02-.66,.01-.44,.24-.68,.69-.69,.3,0,.59-.01,.89-.01,11.32,0,22.65,0,33.97,0,.43,0,.87,.04,1.37,.07Z"/><path class="cls-1" d="M457.7,81.31h-8.15c-.21-1.4-.06-2.74,.11-4.23-.22,.21-.38,.33-.48,.48-1.86,2.66-4.45,4.17-7.59,4.79-3.04,.6-6.04,.46-8.93-.76-5.9-2.51-8.03-8.15-6.34-13.78,.71-2.38,2.25-4.12,4.36-5.39,2.06-1.24,4.31-1.96,6.66-2.35,2.55-.42,5.13-.72,7.69-1.11,.65-.1,1.31-.25,1.93-.49,1.4-.55,2.03-1.7,1.81-3.18-.23-1.53-1.03-2.73-2.43-3.37-2.8-1.27-5.55-1.08-8.11,.66-1.21,.82-1.87,2.07-2.24,3.47-.09,.35-.17,.71-.26,1.1h-9.15c.05-.55,.04-1.06,.14-1.54,1.06-5.09,4.19-8.39,9.01-10.08,4.32-1.51,8.74-1.49,13.11-.2,4.82,1.42,7.46,4.88,8.4,9.67,.34,1.73,.49,3.52,.5,5.28,.06,6.69,.02,13.38,.02,20.07,0,.29-.04,.58-.06,.96Zm-8.52-17.41c-1.13,.39-1.98,.73-2.86,.96-.89,.24-1.81,.38-2.71,.56-1.01,.21-2.05,.34-3.03,.66-1.22,.39-2.44,.85-3.58,1.43-1.01,.52-1.68,1.42-1.96,2.56-.63,2.57,.8,4.97,3.46,5.7,3.86,1.06,9.15-.86,10.29-6.14,.39-1.81,.27-3.73,.39-5.73Z"/><path class="cls-1" d="M410.53,52.74c-.02,.52-.05,.89-.05,1.25,0,4.88-.02,9.75,.01,14.63,0,.99,.13,2,.38,2.95,.48,1.83,1.75,2.91,3.63,3.1,1.24,.13,2.5,.02,3.76,.02,.27,.75,.34,5.08,.11,6.61-.86,.44-1.83,.46-2.77,.57-2.03,.25-4.06,.22-6.07-.22-4.49-.98-7.16-3.85-7.77-8.41-.15-1.09-.22-2.21-.23-3.31-.02-5.25-.01-10.49-.01-15.74v-1.45h-8.09v-7.11c2.67-.07,5.31,0,8.06-.04v-12.65c.92-.26,7.44-.31,8.96-.09,0,1.36,.02,2.75,.03,4.14,0,1.44,0,2.88,0,4.32v4.29h8.79c.05,2.38,.01,4.65,.02,7.04-.98,.19-1.93,.07-2.88,.09-.96,.02-1.92,0-2.89,0h-3Z"/><path class="cls-1" d="M323.63,81.31h-8.68c-.24-.82-.31-34.07-.06-35.69,2.87,0,5.77,0,8.65,0,.25,.85,.33,34.01,.09,35.69Z"/><path class="cls-1" d="M377.69,45.66h8.68c.25,.82,.32,34.15,.07,35.62h-8.7c-.23-.78-.29-34.12-.05-35.62Z"/><path class="cls-1" d="M323.9,30.97v9.18h-9.08c-.23-.81-.3-7.61-.1-9.15,.81-.24,8-.28,9.18-.03Z"/><path class="cls-1" d="M386.67,40.16h-9.16v-9.27h9.07c.24,.8,.31,7.71,.08,9.27Z"/></svg>