<?xml version="1.0" encoding="UTF-8"?><svg id="Layer_1" xmlns="http://www.w3.org/2000/svg" viewBox="0 0 625.33 227.21"><defs><style>.cls-1{fill:#060085;}.cls-2{fill:#fff;stroke:#0080fd;stroke-miterlimit:10;}</style></defs><g><path class="cls-1" d="M81.59,92.48c.7,.87,.22,1.55-.82,1.61l-30.06,1.8c-.91,.05-2.24-.52-2.81-1.39l-18-31.44,1.92,32.14c.05,.91-.67,1.86-1.83,1.93l-22.94,1.37c-.91,.06-1.87-.8-1.92-1.71L0,11.12c-.06-1.04,.79-2,1.7-2.05l22.94-1.37c1.17-.07,2,.79,2.06,1.83l1.73,29.03,13.8-30.34c.46-.94,1.72-1.66,2.89-1.73l28.38-1.69c1.04-.06,1.47,.56,1,1.5l-23.2,42.61,30.3,43.58Z"/><path class="cls-1" d="M74.78,58.67c-1.09-22.56,13.22-38.33,35.79-39.42,22.56-1.09,38.33,13.22,39.42,35.78,1.09,22.56-13.22,38.33-35.78,39.42-22.56,1.09-38.33-13.22-39.43-35.78Zm26.97-1.3c.42,8.56,4.97,14.06,11.32,13.75,6.35-.31,10.36-6.22,9.94-14.78-.42-8.56-4.97-14.06-11.32-13.75-6.35,.31-10.36,6.22-9.94,14.78Z"/><path class="cls-1" d="M178.22,22.07c4.16-3.77,10.84-6.08,18.5-6.33,9.35-.31,16.6,3.22,19.68,9.61,4.84-6.66,13.03-10.7,22.11-11,17.39-.58,28,9.72,28.59,27.63l1.42,42.82c.04,1.17-.59,1.84-1.76,1.88l-23.1,.77c-1.17,.04-1.84-.59-1.88-1.76l-1.29-38.93c-.43-5.18-2.74-8.09-6.63-7.96-7.4,.25-8.32,7.55-8.19,7.55l1.32,39.84c.04,1.17-.59,1.84-1.76,1.88l-23.1,.77c-1.17,.04-1.84-.59-1.88-1.76l-1.29-38.93c-.19-5.58-2.74-8.09-6.63-7.96-7.4,.25-8.32,7.55-8.32,7.55l1.33,39.84c.04,1.17-.59,1.84-1.76,1.88l-23.1,.77c-1.17,.04-1.84-.59-1.88-1.76l-2.26-67.74c-.04-1.17,.59-1.84,1.76-1.88l16.87-.56c.91-.03,1.7,.33,2.12,1.23l1.13,2.56Z"/><path class="cls-1" d="M297.54,18.61c4.23-3.7,10.95-5.88,18.61-5.99,9.34-.14,16.54,3.52,19.49,9.97,4.96-6.57,13.22-10.45,22.31-10.59,17.39-.26,27.81,10.23,28.08,28.15l.64,42.84c.02,1.17-.62,1.83-1.79,1.84l-23.11,.34c-1.17,.02-1.83-.62-1.84-1.79l-.58-38.94c-.34-5.19-2.59-8.14-6.48-8.08-7.4,.11-8.46,7.4-8.33,7.4l.6,39.85c.02,1.17-.62,1.83-1.79,1.85l-23.11,.35c-1.17,.02-1.83-.62-1.84-1.79l-.58-38.94c-.08-5.58-2.59-8.14-6.48-8.08-7.4,.11-8.46,7.4-8.46,7.4l.6,39.85c.02,1.17-.62,1.83-1.79,1.84l-23.11,.35c-1.17,.02-1.83-.62-1.84-1.79l-1.01-67.76c-.02-1.17,.62-1.83,1.79-1.84l16.88-.25c.91-.01,1.69,.36,2.09,1.27l1.08,2.58Z"/><path class="cls-1" d="M460.5,13.49c1.04,0,1.95,.91,1.95,1.95V83.08c0,.91-.91,1.82-1.95,1.82h-16.62c-1.04,0-1.69-.91-2.08-1.95l-1.3-3.25c-4.81,4.29-11.82,7.14-19.48,7.14-16.88,0-26.87-10.78-26.87-28.43V15.43c0-1.04,.91-1.95,1.95-1.95h22.85c1.04,0,1.95,.91,1.95,1.95V55.16c0,4.41,2.72,7.4,6.88,7.4,5.06,0,7.92-4.15,7.92-4.15V15.44c0-1.04,.91-1.95,1.95-1.95h22.85Z"/><path class="cls-1" d="M494.14,17.71c4.59-3.58,12.4-5.56,19.28-5.48,17.66,.21,27.16,8.51,26.92,28.76l-.51,42.84c-.01,1.04-.93,1.94-1.97,1.92l-22.85-.27c-1.04-.01-1.94-.93-1.79-1.97l.46-38.81c.06-5.19-2.24-8.21-6.26-8.25-7.4-.09-8.65,7.17-8.65,7.17l-.48,39.72c-.01,1.04-.93,1.94-1.97,1.92l-22.85-.27c-1.04-.01-1.94-.93-1.92-1.97l.81-67.63c.01-1.17,.67-1.81,1.84-1.8l16.88,.2c.91,.01,1.68,.41,2.06,1.32l1.01,2.61Z"/><path class="cls-1" d="M612.3,80.2c.24,.91-.03,1.43-.95,1.93-6.99,4.38-17.05,6.86-27.04,6.62-22.97-.55-37.93-15.98-37.39-38.43,.54-22.59,15.96-37.28,38.55-36.74,21.54,.52,33.93,14.71,33.36,38.34-.05,1.95-.22,3.89-.66,5.83-.15,1.04-.81,1.54-1.98,1.51l-41.67-1s-.19,8.18,10.71,8.44c6.62,.16,14.06-1.22,19.97-3.81,.92-.37,1.68,.17,1.92,1.08l5.19,16.23Zm-19.16-35.14c.14-5.71-3.28-9.56-8.47-9.68-5.84-.14-9.82,3.53-9.96,9.24l18.43,.44Z"/></g><g><path class="cls-1" d="M248.31,114.54c1.17-.03,1.97,.86,1.99,1.77l.49,19.6c.03,1.17-.73,1.97-1.9,2l-32.97,.82,.29,11.81,26.74-.66c1.17-.03,1.84,.86,1.73,1.64l-1.37,18.22c-.11,.78-1,1.71-2.16,1.74l-24.4,.61,.77,31.02c.02,.91-.86,1.84-1.9,1.87l-22.97,.57c-1.04,.03-1.84-.99-1.87-1.9l-2.13-85.79c-.02-.91,.73-1.84,1.77-1.86l57.89-1.44Z"/><path class="cls-1" d="M280.95,109.46c1.04-.02,1.96,.88,1.98,1.78l1.53,90.36c.02,1.04-.88,1.96-1.91,1.98l-22.85,.39c-1.04,.02-1.96-.88-1.98-1.92l-1.53-90.36c-.02-.91,.88-1.83,1.91-1.85l22.85-.39Z"/><path class="cls-1" d="M320.5,116.5c.09,7.66-5.57,12.92-14.13,13.02-8.57,.1-14.34-5.03-14.43-12.69-.09-8.05,5.56-13.44,14.13-13.53,8.57-.1,14.34,5.16,14.43,13.21Zm-2.55,15.22c1.04-.01,1.95,.89,1.97,1.8l.77,67.64c.01,1.04-.89,1.96-1.93,1.97l-22.85,.26c-1.04,.01-1.96-.89-1.97-1.93l-.77-67.64c0-.91,.89-1.83,1.93-1.84l22.85-.26Z"/><path class="cls-1" d="M351.8,136.93c4.93-4.43,12.58-7.3,20.5-7.32,20.51-.04,34.31,14.99,34.36,37.58,.05,22.46-13.68,37.55-34.19,37.6-6.1,.01-11.95-1.79-15.85-4.9l.06,25.45c0,.91-.91,1.82-1.94,1.82l-22.85,.05c-1.04,0-1.95-.9-1.95-1.81l-.2-91.79c0-1.04,.9-1.95,1.94-1.95l16.62-.04c.91,0,1.56,.78,2.08,1.94l1.44,3.37Zm26.94,30.45c-.02-9.35-4.84-15.57-11.98-15.55-7.14,.02-11.93,6.26-11.91,15.61,.02,9.09,4.84,15.05,11.98,15.04,7.14-.02,11.93-6,11.91-15.09Z"/><path class="cls-1" d="M436.02,179.69c-1.04-.01-1.94-.93-1.93-1.84l-2.64-62.48c0-1.04,.93-1.94,1.97-1.93l24.15,.23c1.04,.01,1.94,.93,1.93,1.97l-3.99,62.42c0,.91-.93,1.81-1.96,1.8l-17.53-.17Zm8.94,2.16c-7.79-.08-12.77,4.42-12.84,11.69-.07,6.88,4.83,11.34,12.61,11.42,7.79,.07,12.77-4.29,12.83-11.17,.07-7.27-4.82-11.86-12.61-11.94Z"/></g><g><g><path class="cls-2" d="M87.58,88.19c.7,.87,.22,1.55-.82,1.61l-30.06,1.8c-.91,.05-2.24-.52-2.81-1.39l-18-31.44,1.92,32.14c.05,.91-.67,1.86-1.83,1.93l-22.94,1.37c-.91,.06-1.87-.8-1.92-1.71L6,6.84c-.06-1.04,.79-2,1.7-2.05l22.94-1.37c1.17-.07,2,.79,2.06,1.83l1.73,29.03L48.22,3.93c.46-.94,1.72-1.66,2.89-1.73l28.38-1.69c1.04-.06,1.47,.56,1,1.5l-23.2,42.61,30.3,43.58Z"/><path class="cls-2" d="M80.78,54.39c-1.09-22.56,13.22-38.33,35.79-39.42,22.56-1.09,38.33,13.22,39.42,35.78,1.09,22.56-13.22,38.33-35.78,39.42-22.56,1.09-38.33-13.22-39.43-35.78Zm26.97-1.3c.42,8.56,4.97,14.06,11.32,13.75,6.35-.31,10.36-6.22,9.94-14.78-.42-8.56-4.97-14.06-11.32-13.75-6.35,.31-10.36,6.22-9.94,14.78Z"/><path class="cls-2" d="M184.22,17.79c4.16-3.77,10.84-6.08,18.5-6.33,9.35-.31,16.6,3.22,19.68,9.61,4.84-6.66,13.03-10.7,22.11-11,17.39-.58,28,9.72,28.59,27.63l1.42,42.82c.04,1.17-.59,1.84-1.76,1.88l-23.1,.77c-1.17,.04-1.84-.59-1.88-1.76l-1.29-38.93c-.43-5.18-2.74-8.09-6.63-7.96-7.4,.25-8.32,7.55-8.19,7.55l1.32,39.84c.04,1.17-.59,1.84-1.76,1.88l-23.1,.77c-1.17,.04-1.84-.59-1.88-1.76l-1.29-38.93c-.19-5.58-2.74-8.09-6.63-7.96-7.4,.25-8.32,7.55-8.32,7.55l1.33,39.84c.04,1.17-.59,1.84-1.76,1.88l-23.1,.77c-1.17,.04-1.84-.59-1.88-1.76l-2.26-67.74c-.04-1.17,.59-1.84,1.76-1.88l16.87-.56c.91-.03,1.7,.33,2.12,1.23l1.13,2.56Z"/><path class="cls-2" d="M303.53,14.33c4.23-3.7,10.95-5.88,18.61-5.99,9.34-.14,16.54,3.52,19.49,9.97,4.96-6.57,13.22-10.45,22.31-10.59,17.39-.26,27.81,10.23,28.08,28.15l.64,42.84c.02,1.17-.62,1.83-1.79,1.84l-23.11,.34c-1.17,.02-1.83-.62-1.84-1.79l-.58-38.94c-.34-5.19-2.59-8.14-6.48-8.08-7.4,.11-8.46,7.4-8.33,7.4l.6,39.85c.02,1.17-.62,1.83-1.79,1.85l-23.11,.35c-1.17,.02-1.83-.62-1.84-1.79l-.58-38.94c-.08-5.58-2.59-8.14-6.48-8.08-7.4,.11-8.46,7.4-8.46,7.4l.6,39.85c.02,1.17-.62,1.83-1.79,1.84l-23.11,.35c-1.17,.02-1.83-.62-1.84-1.79l-1.01-67.76c-.02-1.17,.62-1.83,1.79-1.84l16.88-.25c.91-.01,1.69,.36,2.09,1.27l1.08,2.58Z"/><path class="cls-2" d="M466.49,9.21c1.04,0,1.95,.91,1.95,1.95V78.79c0,.91-.91,1.82-1.95,1.82h-16.62c-1.04,0-1.69-.91-2.08-1.95l-1.3-3.25c-4.81,4.29-11.82,7.14-19.48,7.14-16.88,0-26.87-10.78-26.87-28.43V11.15c0-1.04,.91-1.95,1.95-1.95h22.85c1.04,0,1.95,.91,1.95,1.95V50.88c0,4.41,2.72,7.4,6.88,7.4,5.06,0,7.92-4.15,7.92-4.15V11.15c0-1.04,.91-1.95,1.95-1.95h22.85Z"/><path class="cls-2" d="M500.14,13.43c4.59-3.58,12.4-5.56,19.28-5.48,17.66,.21,27.16,8.51,26.92,28.76l-.51,42.84c-.01,1.04-.93,1.94-1.97,1.92l-22.85-.27c-1.04-.01-1.94-.93-1.79-1.97l.46-38.81c.06-5.19-2.24-8.21-6.26-8.25-7.4-.09-8.65,7.17-8.65,7.17l-.48,39.72c-.01,1.04-.93,1.94-1.97,1.92l-22.85-.27c-1.04-.01-1.94-.93-1.92-1.97l.81-67.63c.01-1.17,.67-1.81,1.84-1.8l16.88,.2c.91,.01,1.68,.41,2.06,1.32l1.01,2.61Z"/><path class="cls-2" d="M618.29,75.92c.24,.91-.03,1.43-.95,1.93-6.99,4.38-17.05,6.86-27.04,6.62-22.97-.55-37.93-15.98-37.39-38.43,.54-22.59,15.96-37.28,38.55-36.74,21.54,.52,33.93,14.71,33.36,38.34-.05,1.95-.22,3.89-.66,5.83-.15,1.04-.81,1.54-1.98,1.51l-41.67-1s-.19,8.18,10.71,8.44c6.62,.16,14.06-1.22,19.97-3.81,.92-.37,1.68,.17,1.92,1.08l5.19,16.23Zm-19.16-35.14c.14-5.71-3.28-9.56-8.47-9.68-5.84-.14-9.82,3.53-9.96,9.24l18.43,.44Z"/></g><g><path class="cls-2" d="M254.3,110.25c1.17-.03,1.97,.86,1.99,1.77l.49,19.6c.03,1.17-.73,1.97-1.9,2l-32.97,.82,.29,11.81,26.74-.66c1.17-.03,1.84,.86,1.73,1.64l-1.37,18.22c-.11,.78-1,1.71-2.16,1.74l-24.4,.61,.77,31.02c.02,.91-.86,1.84-1.9,1.87l-22.97,.57c-1.04,.03-1.84-.99-1.87-1.9l-2.13-85.79c-.02-.91,.73-1.84,1.77-1.86l57.89-1.44Z"/><path class="cls-2" d="M286.95,105.18c1.04-.02,1.96,.88,1.98,1.78l1.53,90.36c.02,1.04-.88,1.96-1.91,1.98l-22.85,.39c-1.04,.02-1.96-.88-1.98-1.92l-1.53-90.36c-.02-.91,.88-1.83,1.91-1.85l22.85-.39Z"/><path class="cls-2" d="M326.5,112.22c.09,7.66-5.57,12.92-14.13,13.02-8.57,.1-14.34-5.03-14.43-12.69-.09-8.05,5.56-13.44,14.13-13.53,8.57-.1,14.34,5.16,14.43,13.21Zm-2.55,15.22c1.04-.01,1.95,.89,1.97,1.8l.77,67.64c.01,1.04-.89,1.96-1.93,1.97l-22.85,.26c-1.04,.01-1.96-.89-1.97-1.93l-.77-67.64c0-.91,.89-1.83,1.93-1.84l22.85-.26Z"/><path class="cls-2" d="M357.8,132.65c4.93-4.43,12.58-7.3,20.5-7.32,20.51-.04,34.31,14.99,34.36,37.58,.05,22.46-13.68,37.55-34.19,37.6-6.1,.01-11.95-1.79-15.85-4.9l.06,25.45c0,.91-.91,1.82-1.94,1.82l-22.85,.05c-1.04,0-1.95-.9-1.95-1.81l-.2-91.79c0-1.04,.9-1.95,1.94-1.95l16.62-.04c.91,0,1.56,.78,2.08,1.94l1.44,3.37Zm26.94,30.45c-.02-9.35-4.84-15.57-11.98-15.55-7.14,.02-11.93,6.26-11.91,15.61,.02,9.09,4.84,15.05,11.98,15.04,7.14-.02,11.93-6,11.91-15.09Z"/><path class="cls-2" d="M442.01,175.41c-1.04-.01-1.94-.93-1.93-1.84l-2.64-62.48c0-1.04,.93-1.94,1.97-1.93l24.15,.23c1.04,.01,1.94,.93,1.93,1.97l-3.99,62.42c0,.91-.93,1.81-1.96,1.8l-17.53-.17Zm8.94,2.16c-7.79-.08-12.77,4.42-12.84,11.69-.07,6.88,4.83,11.34,12.61,11.42,7.79,.07,12.77-4.29,12.83-11.17,.07-7.27-4.82-11.86-12.61-11.94Z"/></g></g></svg>