<?xml version="1.0" encoding="UTF-8"?><svg id="Layer_1" xmlns="http://www.w3.org/2000/svg" viewBox="0 0 540 217"><defs><style>.cls-1{fill:#232323;}.cls-2{fill:#fde95c;stroke:#000660;stroke-miterlimit:10;}</style></defs><path class="cls-1" d="M60.62,89.91c0,1.23-2.03,5.54-6.1,12.92-3.4,6.15-5.95,10.54-7.65,13.16-2.55-2.62-6.37-6.39-11.47-11.3v10.32c-2,0-4.82,.08-8.46,.25-2.73,.08-5.55,.25-8.46,.49-2.61,.16-3.73,.25-3.37,.25-2.25,0-4.04-2.13-5.37-6.39-.97-3.11-1.7-7.49-2.18-13.15-.3-3.69-.58-7.33-.82-10.94-1.64-16.14-2.46-28.09-2.46-35.88V26.17c1.94-1.23,5.7-3.23,11.29-6.02,6.13-3.03,9.74-4.55,10.83-4.55h4c.36,2.62,1.18,6.64,2.46,12.04l14.65-14.74c1.15,1.39,3.46,5.21,6.92,11.44,4.12,7.46,6.19,12.3,6.19,14.52,0,1.31-2.94,5.33-8.83,12.06-7.58,8.69-11.47,13.2-11.65,13.53,1.33,1.8,5.55,6.85,12.65,15.13,5.22,6.07,7.83,9.51,7.83,10.33Z"/><path class="cls-1" d="M152.64,64.4c0,30.64-7.8,48.33-23.39,53.08-10.8,3.28-18.17,4.91-22.12,4.91-13.83,0-25.15-5.41-33.95-16.22-9.04-11.14-13.56-25.97-13.56-44.48,0-12.04,3.03-22.73,9.1-32.07,5.34-8.19,12.5-14.74,21.48-19.66,7.83-4.26,15.14-6.39,21.93-6.39,27,0,40.5,20.27,40.5,60.82Zm-27.03,0c0-4.01-.85-8.44-2.55-13.27-2.31-6.47-5.28-9.71-8.92-9.71-6.13,0-11.19,2.29-15.2,6.88-4.19,4.75-6.28,11.22-6.28,19.41,0,5.82,1.33,10.69,4,14.62,2.73,4.18,6.22,6.27,10.47,6.27,5.1,0,9.45-2.31,13.06-6.94,3.61-4.63,5.41-10.38,5.41-17.26Z"/><path class="cls-1" d="M234.73,96.24c0,5.73-.82,9.91-2.46,12.53-.97,.33-2.43,.84-4.37,1.54-1.94,.69-3.4,1.21-4.37,1.54-3.4,1.15-6.34,1.72-8.83,1.72-1.7-1.64-2.67-3.61-2.91-5.9,0-.66-.09-3.93-.27-9.83-.12-5.65-.88-12-2.28-19.04-.55,.25-1.73,1.43-3.55,3.56-2.13,2.54-3.7,4.26-4.73,5.16-1.76-1.56-4.55-4.95-8.37-10.2-1.27,12.04-1.91,22.12-1.91,30.23-4.31,.74-8.92,1.11-13.83,1.11s-9.53-.37-13.83-1.11V18.71c.42-1.23,2.61-2.62,6.55-4.18,3.64-1.47,6.07-2.21,7.28-2.21,3.88,0,6.73,.53,8.55,1.6,2.24,1.31,4.28,4.01,6.1,8.11,.36,.9,2.52,6.39,6.46,16.46,2.37-1.15,4.1-4.67,5.19-10.57,1.33-6.88,2.88-11.06,4.64-12.53,1.39-1.06,5.01-1.6,10.83-1.6,3.7,0,5.92,.08,6.64,.25,2.91,.66,4.49,2.25,4.73,4.79,1.15,11.47,2.28,27.11,3.37,46.94,.91,16.88,1.37,27.03,1.37,30.47Z"/><path class="cls-1" d="M316.91,96.24c0,5.73-.82,9.91-2.46,12.53-.97,.33-2.43,.84-4.37,1.54-1.94,.69-3.4,1.21-4.37,1.54-3.4,1.15-6.34,1.72-8.83,1.72-1.7-1.64-2.67-3.61-2.91-5.9,0-.66-.09-3.93-.27-9.83-.12-5.65-.88-12-2.28-19.04-.55,.25-1.73,1.43-3.55,3.56-2.13,2.54-3.7,4.26-4.73,5.16-1.76-1.56-4.55-4.95-8.37-10.2-1.27,12.04-1.91,22.12-1.91,30.23-4.31,.74-8.92,1.11-13.83,1.11s-9.53-.37-13.83-1.11V18.71c.42-1.23,2.61-2.62,6.55-4.18,3.64-1.47,6.07-2.21,7.28-2.21,3.88,0,6.73,.53,8.55,1.6,2.24,1.31,4.28,4.01,6.1,8.11,.36,.9,2.52,6.39,6.46,16.46,2.37-1.15,4.1-4.67,5.19-10.57,1.33-6.88,2.88-11.06,4.64-12.53,1.39-1.06,5.01-1.6,10.83-1.6,3.7,0,5.92,.08,6.64,.25,2.91,.66,4.49,2.25,4.73,4.79,1.15,11.47,2.28,27.11,3.37,46.94,.91,16.88,1.37,27.03,1.37,30.47Z"/><path class="cls-1" d="M402.65,38.04c0,20.07-2.88,37.27-8.65,51.6-7.1,17.69-17.44,26.54-31.04,26.54-9.1,0-17.29-3.77-24.57-11.3-6.67-6.96-12.04-16.34-16.11-28.14-3.64-10.65-5.46-20.93-5.46-30.84,0-8.36,.7-14.54,2.09-18.55,1.88-5.16,5.43-8.89,10.65-11.18,2.55-1.06,8.95-2.83,19.2-5.28,1.21,1.31,2.21,1.97,3,1.97-.73,5.65-1.09,10.98-1.09,15.97,0,15.97,3.67,25.76,11.01,29.37,4.12-2.38,7.01-5.94,8.65-10.69,1.03-3.03,1.79-7.62,2.28-13.76,.48-6.63,1.15-11.26,2-13.88,6.92-2.54,12.38-3.81,16.38-3.81s6.89,.37,8.28,1.11c2.43,1.31,3.64,4.26,3.64,8.85,0,1.31-.05,3.32-.14,6.02-.09,2.7-.14,4.71-.14,6.02Z"/><path class="cls-1" d="M478.46,100.27c.12,5.32,.09,9.01-.09,11.06-.43,5.41-1.55,8.11-3.37,8.11h-22.48c-3.34-6.55-8.53-16.38-15.56-29.49,.06,7.78-.18,17.24-.73,28.38-5.22,1.31-10.25,1.97-15.11,1.97-7.65,0-9.62,.08-5.92,.25-2.49-.08-4.23-.82-5.23-2.21-1-1.39-1.59-2.46-1.77-3.19-1.27-5.49-2.28-11.55-3-18.18-.91-8.6-1.82-22.16-2.73-40.67-.73-14.74-1.09-23.3-1.09-25.68,0-7.29,.27-11.71,.82-13.27,.3-.82,4.64-3.15,13.01-7,8.07-3.69,12.56-5.53,13.47-5.53,1.33,0,3.79,3.85,7.37,11.55,2,4.34,4.1,8.97,6.28,13.88,.61-1.06,.7-3.32,.27-6.76-.42-3.44-.09-5.73,1-6.88,11.16-6.31,20.72-9.95,28.67-10.94,2,5.24,3.24,15.2,3.73,29.86,.55,5.24,1.15,14.79,1.82,28.63l.64,36.12Z"/><path class="cls-1" d="M535.53,102.52c0,1.47-.12,3.73-.36,6.76-.24,3.03-.36,5.32-.36,6.88-10.19,1.39-17.54,2.09-22.02,2.09-2.25,0-11.26-.99-27.03-2.95-.3-.25-.76-.82-1.37-1.72-.79-7.71-1.79-20.75-3-39.11l-1.64-26.08V23.17c6.31-4.26,14.17-7.67,23.57-10.21,5.76-1.56,14.08-3.12,24.94-4.67,.3,.33,.73,.98,1.27,1.97l2.82,25.19c0,1.23-.29,2.54-.86,3.93-.58,1.39-1.26,2.17-2.05,2.33-5.28,.98-9.07,1.76-11.38,2.33-4.73,1.23-8.53,2.99-11.38,5.28l.55,5.77c.18,1.64,.85,2.46,2,2.46,.79,0,2.29-.57,4.51-1.72,2.21-1.15,3.72-1.72,4.51-1.72,1.33,0,2.3,.66,2.91,1.97,2.73,9.34,4.1,14.58,4.1,15.73,0,.74-.46,2.21-1.37,4.42l-6.92,2.46c-3.22,1.15-5.79,2.66-7.74,4.55v3.07c4.13,1.56,8.49,2.33,13.11,2.33,.79,0,2.02-.14,3.69-.43,1.67-.29,2.9-.43,3.69-.43,2.85,0,4.67,2.13,5.46,6.39,.24,1.31,.36,4.1,.36,8.36Z"/><path class="cls-1" d="M197.1,132.56c-5.4,1.8-13.38,4.87-23.94,9.22,0,4.67,.46,7.95,1.37,9.83,1.76-.57,5.37-1.6,10.83-3.07,1.52,4.18,3.37,10.65,5.55,19.41l-13.65,6.76c-2.18,1.23-3.28,2.38-3.28,3.44,0,.41,.38,2.07,1.14,4.98,.76,2.91,1.14,5.34,1.14,7.31v14.87h-22.93c-1.09-5.24-2.43-12.45-4-21.62-2.06-12.2-3.09-20.68-3.09-25.43v-41.77c4.06-2.87,9.07-5.28,15.02-7.25,2.91-.98,8.13-2.42,15.65-4.3,6.19-1.47,9.74-2.21,10.65-2.21h7.1l2.46,20.15v9.71Z"/><path class="cls-1" d="M255.8,198.49c-5.04,1.31-11.68,2.46-19.93,3.44-6.43,.74-11.04,1.11-13.83,1.11-4.67,0-8.16-.57-10.47-1.72l-6.46-82.57c0-1.8,.76-4.42,2.28-7.86,12.44-3.28,20.14-4.91,23.12-4.91,2.3,0,4.06,1.6,5.28,4.79v43.25c0,3.52,.39,6.06,1.18,7.62,.97,1.89,2.7,2.83,5.19,2.83,.91,0,2.23-.22,3.96-.68,1.73-.45,3.05-.68,3.96-.68,2.24,0,4.16,1.11,5.73,3.32v32.07Z"/><path class="cls-1" d="M273.73,113.8c1.5,.84,6.73,5.81,6.73,9.82,0,11.63-4.13,17.45-12.38,17.45,.73,.74,1.91,1.11,3.55,1.11,.55,0,1.38-.04,2.5-.12,1.12-.08,1.96-.12,2.5-.12,2.79,0,4.82,.9,6.1,2.7,1.09,3.03,2.06,9.46,2.91,19.29,.67,7.54,1,12.98,1,16.34,0,10.73-.88,17.57-2.64,20.52-2,3.44-6.58,5.16-13.74,5.16-3.58,0-6.89-.53-9.92-1.6-2.49-5.41-3.73-17.61-3.73-36.61,0-10.65,.39-18.47,1.18-23.47,.73-1.06,3.28-2.17,7.64-3.32-4.43-.9-7.43-2.83-9.01-5.77-1.09-2.05-1.64-5.28-1.64-9.71,0-2.95,.55-5.53,1.64-7.74,1.21-2.54,7.59-5.31,9.71-5.31"/><path class="cls-1" d="M359.92,133.99c0,13.68-3.19,24.08-9.56,31.21-5.46,6.06-13.59,10.03-24.39,11.92-.85,.17-1.67,.37-2.46,.61-1.21,.41-2.22,1.03-3,1.84-.18,6.72,.21,13.19,1.18,19.41l1.55,9.95c0,1.88-.97,3.07-2.91,3.56-1.4,.33-5.25,.49-11.56,.49-.73,0-1.84,.18-3.32,.55-1.49,.37-2.59,.55-3.32,.55-2.12,0-4.19-.12-6.19-.37-4.73-12.29-7.77-31.13-9.1-56.52-.49-8.93-.76-16.22-.82-21.87-.06-4.01-.06-9.22,0-15.6l.09-9.22c4.43-4.42,11.71-8.31,21.84-11.67,9.22-3.11,17.08-4.67,23.57-4.67,9.89,0,17.14,3.36,21.75,10.08,4.43,6.39,6.64,16.3,6.64,29.73Zm-27.58,9.09c0-2.38-.98-4.3-2.93-5.77-1.71-1.23-3.51-1.84-5.4-1.84-1.65,0-4.12,1.39-7.41,4.18v6.64c1.16,2.87,3.63,4.3,7.41,4.3,5.55,0,8.33-2.5,8.33-7.5Z"/><path class="cls-1" d="M374.38,182.12l3.9,.53c1.51,1.48,6.3,5.59,6.3,9.62,0,12.09-4.13,17.93-12.38,17.52l-2.64-.12c-4.43-.91-7.43-2.84-9.01-5.8-1.09-2.06-1.64-5.31-1.64-9.75,0-2.96,.55-5.55,1.64-7.78,1.21-2.55,2.88-3.83,5.01-3.83m10.19-22.98,2.31,7.65c2.79,0,6.37,1.56,7.65-.24,1.09-3.03,3.21-19.33,4.06-29.16,.67-7.54,1-12.98,1-16.34,0-10.73-.88-17.57-2.64-20.52-2-3.44-6.58-5.16-13.74-5.16-3.58,0-6.89,.53-9.92,1.59-2.49,5.4-3.73,17.58-3.73,36.55,0,10.71,1.7,27.83,2.49,32.73,.73,1.06,3.73-1.05,8.09,.1m-8.84-4.63,6.75,20.03l-1.3,.26m8.46-1.72l-1.09-.25"/><path d="M56.34,92.82c0,1.23-2.03,5.54-6.1,12.92-3.4,6.15-5.95,10.54-7.65,13.16-2.55-2.62-6.37-6.39-11.47-11.3v10.32c-2,0-4.82,.08-8.46,.25-2.73,.08-5.55,.25-8.46,.49-2.61,.16-3.73,.25-3.37,.25-2.25,0-4.04-2.13-5.37-6.39-.97-3.11-1.7-7.49-2.18-13.15-.3-3.69-.58-7.33-.82-10.94C.82,72.29,0,60.33,0,52.55V29.08c1.94-1.23,5.7-3.23,11.29-6.02,6.13-3.03,9.74-4.55,10.83-4.55h4c.36,2.62,1.18,6.64,2.46,12.04l14.65-14.74c1.15,1.39,3.46,5.21,6.92,11.44,4.12,7.46,6.19,12.3,6.19,14.52,0,1.31-2.94,5.33-8.83,12.06-7.58,8.69-11.47,13.2-11.65,13.53,1.33,1.8,5.55,6.85,12.65,15.13,5.22,6.07,7.83,9.51,7.83,10.33Z"/><path d="M148.35,67.31c0,30.64-7.8,48.33-23.39,53.08-10.8,3.28-18.17,4.91-22.12,4.91-13.83,0-25.15-5.41-33.95-16.22-9.04-11.14-13.56-25.97-13.56-44.48,0-12.04,3.03-22.73,9.1-32.07,5.34-8.19,12.5-14.74,21.48-19.66,7.83-4.26,15.14-6.39,21.93-6.39,27,0,40.5,20.27,40.5,60.82Zm-27.03,0c0-4.01-.85-8.44-2.55-13.27-2.31-6.47-5.28-9.71-8.92-9.71-6.13,0-11.19,2.29-15.2,6.88-4.19,4.75-6.28,11.22-6.28,19.41,0,5.82,1.33,10.69,4,14.62,2.73,4.18,6.22,6.27,10.47,6.27,5.1,0,9.45-2.31,13.06-6.94,3.61-4.63,5.41-10.38,5.41-17.26Z"/><path d="M230.44,99.15c0,5.73-.82,9.91-2.46,12.53-.97,.33-2.43,.84-4.37,1.54-1.94,.69-3.4,1.21-4.37,1.54-3.4,1.15-6.34,1.72-8.83,1.72-1.7-1.64-2.67-3.61-2.91-5.9,0-.66-.09-3.93-.27-9.83-.12-5.65-.88-12-2.28-19.04-.55,.25-1.73,1.43-3.55,3.56-2.13,2.54-3.7,4.26-4.73,5.16-1.76-1.56-4.55-4.95-8.37-10.2-1.27,12.04-1.91,22.12-1.91,30.23-4.31,.74-8.92,1.11-13.83,1.11s-9.53-.37-13.83-1.11V21.62c.42-1.23,2.61-2.62,6.55-4.18,3.64-1.47,6.07-2.21,7.28-2.21,3.88,0,6.73,.53,8.55,1.6,2.24,1.31,4.28,4.01,6.1,8.11,.36,.9,2.52,6.39,6.46,16.46,2.37-1.15,4.1-4.67,5.19-10.57,1.33-6.88,2.88-11.06,4.64-12.53,1.39-1.06,5.01-1.6,10.83-1.6,3.7,0,5.92,.08,6.64,.25,2.91,.66,4.49,2.25,4.73,4.79,1.15,11.47,2.28,27.11,3.37,46.94,.91,16.88,1.37,27.03,1.37,30.47Z"/><path d="M312.63,99.15c0,5.73-.82,9.91-2.46,12.53-.97,.33-2.43,.84-4.37,1.54-1.94,.69-3.4,1.21-4.37,1.54-3.4,1.15-6.34,1.72-8.83,1.72-1.7-1.64-2.67-3.61-2.91-5.9,0-.66-.09-3.93-.27-9.83-.12-5.65-.88-12-2.28-19.04-.55,.25-1.73,1.43-3.55,3.56-2.13,2.54-3.7,4.26-4.73,5.16-1.76-1.56-4.55-4.95-8.37-10.2-1.27,12.04-1.91,22.12-1.91,30.23-4.31,.74-8.92,1.11-13.83,1.11s-9.53-.37-13.83-1.11V21.62c.42-1.23,2.61-2.62,6.55-4.18,3.64-1.47,6.07-2.21,7.28-2.21,3.88,0,6.73,.53,8.55,1.6,2.24,1.31,4.28,4.01,6.1,8.11,.36,.9,2.52,6.39,6.46,16.46,2.37-1.15,4.1-4.67,5.19-10.57,1.33-6.88,2.88-11.06,4.64-12.53,1.39-1.06,5.01-1.6,10.83-1.6,3.7,0,5.92,.08,6.64,.25,2.91,.66,4.49,2.25,4.73,4.79,1.15,11.47,2.28,27.11,3.37,46.94,.91,16.88,1.37,27.03,1.37,30.47Z"/><path d="M398.36,40.95c0,20.07-2.88,37.27-8.65,51.6-7.1,17.69-17.44,26.54-31.04,26.54-9.1,0-17.29-3.77-24.57-11.3-6.67-6.96-12.04-16.34-16.11-28.14-3.64-10.65-5.46-20.93-5.46-30.84,0-8.36,.7-14.54,2.09-18.55,1.88-5.16,5.43-8.89,10.65-11.18,2.55-1.06,8.95-2.83,19.2-5.28,1.21,1.31,2.21,1.97,3,1.97-.73,5.65-1.09,10.98-1.09,15.97,0,15.97,3.67,25.76,11.01,29.37,4.12-2.38,7.01-5.94,8.65-10.69,1.03-3.03,1.79-7.62,2.28-13.76,.48-6.63,1.15-11.26,2-13.88,6.92-2.54,12.38-3.81,16.38-3.81s6.89,.37,8.28,1.11c2.43,1.31,3.64,4.26,3.64,8.85,0,1.31-.05,3.32-.14,6.02-.09,2.7-.14,4.71-.14,6.02Z"/><path d="M474.18,103.17c.12,5.32,.09,9.01-.09,11.06-.43,5.41-1.55,8.11-3.37,8.11h-22.48c-3.34-6.55-8.53-16.38-15.56-29.49,.06,7.78-.18,17.24-.73,28.38-5.22,1.31-10.25,1.97-15.11,1.97-7.65,0-9.62,.08-5.92,.25-2.49-.08-4.23-.82-5.23-2.21-1-1.39-1.59-2.46-1.77-3.19-1.27-5.49-2.28-11.55-3-18.18-.91-8.6-1.82-22.16-2.73-40.67-.73-14.74-1.09-23.3-1.09-25.68,0-7.29,.27-11.71,.82-13.27,.3-.82,4.64-3.15,13.01-7,8.07-3.69,12.56-5.53,13.47-5.53,1.33,0,3.79,3.85,7.37,11.55,2,4.34,4.1,8.97,6.28,13.88,.61-1.06,.7-3.32,.27-6.76-.42-3.44-.09-5.73,1-6.88,11.16-6.31,20.72-9.95,28.67-10.94,2,5.24,3.24,15.2,3.73,29.86,.55,5.24,1.15,14.79,1.82,28.63l.64,36.12Z"/><path d="M531.24,105.42c0,1.47-.12,3.73-.36,6.76-.24,3.03-.36,5.32-.36,6.88-10.19,1.39-17.54,2.09-22.02,2.09-2.25,0-11.26-.99-27.03-2.95-.3-.25-.76-.82-1.37-1.72-.79-7.71-1.79-20.75-3-39.11l-1.64-26.08V26.07c6.31-4.26,14.17-7.67,23.57-10.21,5.76-1.56,14.08-3.12,24.94-4.67,.3,.33,.73,.98,1.27,1.97l2.82,25.19c0,1.23-.29,2.54-.86,3.93-.58,1.39-1.26,2.17-2.05,2.33-5.28,.98-9.07,1.76-11.38,2.33-4.73,1.23-8.53,2.99-11.38,5.28l.55,5.77c.18,1.64,.85,2.46,2,2.46,.79,0,2.29-.57,4.51-1.72,2.21-1.15,3.72-1.72,4.51-1.72,1.33,0,2.3,.66,2.91,1.97,2.73,9.34,4.1,14.58,4.1,15.73,0,.74-.46,2.21-1.37,4.42l-6.92,2.46c-3.22,1.15-5.79,2.66-7.74,4.55v3.07c4.13,1.56,8.49,2.33,13.11,2.33,.79,0,2.02-.14,3.69-.43,1.67-.29,2.9-.43,3.69-.43,2.85,0,4.67,2.13,5.46,6.39,.24,1.31,.36,4.1,.36,8.36Z"/><path d="M192.81,135.47c-5.4,1.8-13.38,4.87-23.94,9.22,0,4.67,.46,7.95,1.37,9.83,1.76-.57,5.37-1.6,10.83-3.07,1.52,4.18,3.37,10.65,5.55,19.41l-13.65,6.76c-2.18,1.23-3.28,2.38-3.28,3.44,0,.41,.38,2.07,1.14,4.98,.76,2.91,1.14,5.34,1.14,7.31v14.87h-22.93c-1.09-5.24-2.43-12.45-4-21.62-2.06-12.2-3.09-20.68-3.09-25.43v-41.77c4.06-2.87,9.07-5.28,15.02-7.25,2.91-.98,8.13-2.42,15.65-4.3,6.19-1.47,9.74-2.21,10.65-2.21h7.1l2.46,20.15v9.71Z"/><path d="M251.51,201.39c-5.04,1.31-11.68,2.46-19.93,3.44-6.43,.74-11.04,1.11-13.83,1.11-4.67,0-8.16-.57-10.47-1.72l-6.46-82.57c0-1.8,.76-4.42,2.28-7.86,12.44-3.28,20.14-4.91,23.12-4.91,2.3,0,4.06,1.6,5.28,4.79v43.25c0,3.52,.39,6.06,1.18,7.62,.97,1.89,2.7,2.83,5.19,2.83,.91,0,2.23-.22,3.96-.68,1.73-.45,3.05-.68,3.96-.68,2.24,0,4.16,1.11,5.73,3.32v32.07Z"/><path d="M269.45,116.71c1.5,.84,6.73,5.81,6.73,9.82,0,11.63-4.13,17.45-12.38,17.45,.73,.74,1.91,1.11,3.55,1.11,.55,0,1.38-.04,2.5-.12,1.12-.08,1.96-.12,2.5-.12,2.79,0,4.82,.9,6.1,2.7,1.09,3.03,2.06,9.46,2.91,19.29,.67,7.54,1,12.98,1,16.34,0,10.73-.88,17.57-2.64,20.52-2,3.44-6.58,5.16-13.74,5.16-3.58,0-6.89-.53-9.92-1.6-2.49-5.41-3.73-17.61-3.73-36.61,0-10.65,.39-18.47,1.18-23.47,.73-1.06,3.28-2.17,7.64-3.32-4.43-.9-7.43-2.83-9.01-5.77-1.09-2.05-1.64-5.28-1.64-9.71,0-2.95,.55-5.53,1.64-7.74,1.21-2.54,7.59-5.31,9.71-5.31"/><path d="M355.63,136.89c0,13.68-3.19,24.08-9.56,31.21-5.46,6.06-13.59,10.03-24.39,11.92-.85,.17-1.67,.37-2.46,.61-1.21,.41-2.22,1.03-3,1.84-.18,6.72,.21,13.19,1.18,19.41l1.55,9.95c0,1.88-.97,3.07-2.91,3.56-1.4,.33-5.25,.49-11.56,.49-.73,0-1.84,.18-3.32,.55-1.49,.37-2.59,.55-3.32,.55-2.12,0-4.19-.12-6.19-.37-4.73-12.29-7.77-31.13-9.1-56.52-.49-8.93-.76-16.22-.82-21.87-.06-4.01-.06-9.22,0-15.6l.09-9.22c4.43-4.42,11.71-8.31,21.84-11.67,9.22-3.11,17.08-4.67,23.57-4.67,9.89,0,17.14,3.36,21.75,10.08,4.43,6.39,6.64,16.3,6.64,29.73Zm-27.58,9.09c0-2.38-.98-4.3-2.93-5.77-1.71-1.23-3.51-1.84-5.4-1.84-1.65,0-4.12,1.39-7.41,4.18v6.64c1.16,2.87,3.63,4.3,7.41,4.3,5.55,0,8.33-2.5,8.33-7.5Z"/><path d="M370.09,185.03l3.9,.53c1.51,1.48,6.3,5.59,6.3,9.62,0,12.09-4.13,17.93-12.38,17.52l-2.64-.12c-4.43-.91-7.43-2.84-9.01-5.8-1.09-2.06-1.64-5.31-1.64-9.75,0-2.96,.55-5.55,1.64-7.78,1.21-2.55,2.88-3.83,5.01-3.83m10.19-22.98,2.31,7.65c2.79,0,6.37,1.56,7.65-.24,1.09-3.03,3.21-19.33,4.06-29.16,.67-7.54,1-12.98,1-16.34,0-10.73-.88-17.57-2.64-20.52-2-3.44-6.58-5.16-13.74-5.16-3.58,0-6.89,.53-9.92,1.59-2.49,5.4-3.73,17.58-3.73,36.55,0,10.71,1.7,27.83,2.49,32.73,.73,1.06,3.73-1.05,8.09,.1m-8.84-4.63,6.75,20.03l-1.3,.26m8.46-1.72l-1.09-.25"/><path class="cls-2" d="M64.59,86.83c0,1.23-2.03,5.54-6.1,12.92-3.4,6.15-5.95,10.54-7.65,13.16-2.55-2.62-6.37-6.39-11.47-11.3v10.32c-2,0-4.82,.08-8.46,.25-2.73,.08-5.55,.25-8.46,.49-2.61,.16-3.73,.25-3.37,.25-2.25,0-4.04-2.13-5.37-6.39-.97-3.11-1.7-7.49-2.18-13.15-.3-3.69-.58-7.33-.82-10.94-1.64-16.14-2.46-28.09-2.46-35.88V23.09c1.94-1.23,5.7-3.23,11.29-6.02,6.13-3.03,9.74-4.55,10.83-4.55h4c.36,2.62,1.18,6.64,2.46,12.04l14.65-14.74c1.15,1.39,3.46,5.21,6.92,11.44,4.12,7.46,6.19,12.3,6.19,14.52,0,1.31-2.94,5.33-8.83,12.06-7.58,8.69-11.47,13.2-11.65,13.53,1.33,1.8,5.55,6.85,12.65,15.13,5.22,6.07,7.83,9.51,7.83,10.33Z"/><path class="cls-2" d="M156.61,61.32c0,30.64-7.8,48.33-23.39,53.08-10.8,3.28-18.17,4.91-22.12,4.91-13.83,0-25.15-5.41-33.95-16.22-9.04-11.14-13.56-25.97-13.56-44.48,0-12.04,3.03-22.73,9.1-32.07,5.34-8.19,12.5-14.74,21.48-19.66,7.83-4.26,15.14-6.39,21.93-6.39,27,0,40.5,20.27,40.5,60.82Zm-27.03,0c0-4.01-.85-8.44-2.55-13.27-2.31-6.47-5.28-9.71-8.92-9.71-6.13,0-11.19,2.29-15.2,6.88-4.19,4.75-6.28,11.22-6.28,19.41,0,5.82,1.33,10.69,4,14.62,2.73,4.18,6.22,6.27,10.47,6.27,5.1,0,9.45-2.31,13.06-6.94,3.61-4.63,5.41-10.38,5.41-17.26Z"/><path class="cls-2" d="M238.7,93.16c0,5.73-.82,9.91-2.46,12.53-.97,.33-2.43,.84-4.37,1.54-1.94,.69-3.4,1.21-4.37,1.54-3.4,1.15-6.34,1.72-8.83,1.72-1.7-1.64-2.67-3.61-2.91-5.9,0-.66-.09-3.93-.27-9.83-.12-5.65-.88-12-2.28-19.04-.55,.25-1.73,1.43-3.55,3.56-2.13,2.54-3.7,4.26-4.73,5.16-1.76-1.56-4.55-4.95-8.37-10.2-1.27,12.04-1.91,22.12-1.91,30.23-4.31,.74-8.92,1.11-13.83,1.11s-9.53-.37-13.83-1.11V15.63c.42-1.23,2.61-2.62,6.55-4.18,3.64-1.47,6.07-2.21,7.28-2.21,3.88,0,6.73,.53,8.55,1.6,2.24,1.31,4.28,4.01,6.1,8.11,.36,.9,2.52,6.39,6.46,16.46,2.37-1.15,4.1-4.67,5.19-10.57,1.33-6.88,2.88-11.06,4.64-12.53,1.39-1.06,5.01-1.6,10.83-1.6,3.7,0,5.92,.08,6.64,.25,2.91,.66,4.49,2.25,4.73,4.79,1.15,11.47,2.28,27.11,3.37,46.94,.91,16.88,1.37,27.03,1.37,30.47Z"/><path class="cls-2" d="M320.89,93.16c0,5.73-.82,9.91-2.46,12.53-.97,.33-2.43,.84-4.37,1.54-1.94,.69-3.4,1.21-4.37,1.54-3.4,1.15-6.34,1.72-8.83,1.72-1.7-1.64-2.67-3.61-2.91-5.9,0-.66-.09-3.93-.27-9.83-.12-5.65-.88-12-2.28-19.04-.55,.25-1.73,1.43-3.55,3.56-2.13,2.54-3.7,4.26-4.73,5.16-1.76-1.56-4.55-4.95-8.37-10.2-1.27,12.04-1.91,22.12-1.91,30.23-4.31,.74-8.92,1.11-13.83,1.11s-9.53-.37-13.83-1.11V15.63c.42-1.23,2.61-2.62,6.55-4.18,3.64-1.47,6.07-2.21,7.28-2.21,3.88,0,6.73,.53,8.55,1.6,2.24,1.31,4.28,4.01,6.1,8.11,.36,.9,2.52,6.39,6.46,16.46,2.37-1.15,4.1-4.67,5.19-10.57,1.33-6.88,2.88-11.06,4.64-12.53,1.39-1.06,5.01-1.6,10.83-1.6,3.7,0,5.92,.08,6.64,.25,2.91,.66,4.49,2.25,4.73,4.79,1.15,11.47,2.28,27.11,3.37,46.94,.91,16.88,1.37,27.03,1.37,30.47Z"/><path class="cls-2" d="M406.62,34.96c0,20.07-2.88,37.27-8.65,51.6-7.1,17.69-17.44,26.54-31.04,26.54-9.1,0-17.29-3.77-24.57-11.3-6.67-6.96-12.04-16.34-16.11-28.14-3.64-10.65-5.46-20.93-5.46-30.84,0-8.36,.7-14.54,2.09-18.55,1.88-5.16,5.43-8.89,10.65-11.18,2.55-1.06,8.95-2.83,19.2-5.28,1.21,1.31,2.21,1.97,3,1.97-.73,5.65-1.09,10.98-1.09,15.97,0,15.97,3.67,25.76,11.01,29.37,4.12-2.38,7.01-5.94,8.65-10.69,1.03-3.03,1.79-7.62,2.28-13.76,.48-6.63,1.15-11.26,2-13.88,6.92-2.54,12.38-3.81,16.38-3.81s6.89,.37,8.28,1.11c2.43,1.31,3.64,4.26,3.64,8.85,0,1.31-.05,3.32-.14,6.02-.09,2.7-.14,4.71-.14,6.02Z"/><path class="cls-2" d="M482.43,97.19c.12,5.32,.09,9.01-.09,11.06-.43,5.41-1.55,8.11-3.37,8.11h-22.48c-3.34-6.55-8.53-16.38-15.56-29.49,.06,7.78-.18,17.24-.73,28.38-5.22,1.31-10.25,1.97-15.11,1.97-7.65,0-9.62,.08-5.92,.25-2.49-.08-4.23-.82-5.23-2.21-1-1.39-1.59-2.46-1.77-3.19-1.27-5.49-2.28-11.55-3-18.18-.91-8.6-1.82-22.16-2.73-40.67-.73-14.74-1.09-23.3-1.09-25.68,0-7.29,.27-11.71,.82-13.27,.3-.82,4.64-3.15,13.01-7,8.07-3.69,12.56-5.53,13.47-5.53,1.33,0,3.79,3.85,7.37,11.55,2,4.34,4.1,8.97,6.28,13.88,.61-1.06,.7-3.32,.27-6.76-.42-3.44-.09-5.73,1-6.88,11.16-6.31,20.72-9.95,28.67-10.94,2,5.24,3.24,15.2,3.73,29.86,.55,5.24,1.15,14.79,1.82,28.63l.64,36.12Z"/><path class="cls-2" d="M539.5,99.44c0,1.47-.12,3.73-.36,6.76-.24,3.03-.36,5.32-.36,6.88-10.19,1.39-17.54,2.09-22.02,2.09-2.25,0-11.26-.99-27.03-2.95-.3-.25-.76-.82-1.37-1.72-.79-7.71-1.79-20.75-3-39.11l-1.64-26.08V20.08c6.31-4.26,14.17-7.67,23.57-10.21,5.76-1.56,14.08-3.12,24.94-4.67,.3,.33,.73,.98,1.27,1.97l2.82,25.19c0,1.23-.29,2.54-.86,3.93-.58,1.39-1.26,2.17-2.05,2.33-5.28,.98-9.07,1.76-11.38,2.33-4.73,1.23-8.53,2.99-11.38,5.28l.55,5.77c.18,1.64,.85,2.46,2,2.46,.79,0,2.29-.57,4.51-1.72,2.21-1.15,3.72-1.72,4.51-1.72,1.33,0,2.3,.66,2.91,1.97,2.73,9.34,4.1,14.58,4.1,15.73,0,.74-.46,2.21-1.37,4.42l-6.92,2.46c-3.22,1.15-5.79,2.66-7.74,4.55v3.07c4.13,1.56,8.49,2.33,13.11,2.33,.79,0,2.02-.14,3.69-.43,1.67-.29,2.9-.43,3.69-.43,2.85,0,4.67,2.13,5.46,6.39,.24,1.31,.36,4.1,.36,8.36Z"/><path class="cls-2" d="M201.07,129.48c-5.4,1.8-13.38,4.87-23.94,9.22,0,4.67,.46,7.95,1.37,9.83,1.76-.57,5.37-1.6,10.83-3.07,1.52,4.18,3.37,10.65,5.55,19.41l-13.65,6.76c-2.18,1.23-3.28,2.38-3.28,3.44,0,.41,.38,2.07,1.14,4.98,.76,2.91,1.14,5.34,1.14,7.31v14.87h-22.93c-1.09-5.24-2.43-12.45-4-21.62-2.06-12.2-3.09-20.68-3.09-25.43v-41.77c4.06-2.87,9.07-5.28,15.02-7.25,2.91-.98,8.13-2.42,15.65-4.3,6.19-1.47,9.74-2.21,10.65-2.21h7.1l2.46,20.15v9.71Z"/><path class="cls-2" d="M259.77,195.41c-5.04,1.31-11.68,2.46-19.93,3.44-6.43,.74-11.04,1.11-13.83,1.11-4.67,0-8.16-.57-10.47-1.72l-6.46-82.57c0-1.8,.76-4.42,2.28-7.86,12.44-3.28,20.14-4.91,23.12-4.91,2.3,0,4.06,1.6,5.28,4.79v43.25c0,3.52,.39,6.06,1.18,7.62,.97,1.89,2.7,2.83,5.19,2.83,.91,0,2.23-.22,3.96-.68,1.73-.45,3.05-.68,3.96-.68,2.24,0,4.16,1.11,5.73,3.32v32.07Z"/><path class="cls-2" d="M277.7,110.72c1.5,.84,6.73,5.81,6.73,9.82,0,11.63-4.13,17.45-12.38,17.45,.73,.74,1.91,1.11,3.55,1.11,.55,0,1.38-.04,2.5-.12,1.12-.08,1.96-.12,2.5-.12,2.79,0,4.82,.9,6.1,2.7,1.09,3.03,2.06,9.46,2.91,19.29,.67,7.54,1,12.98,1,16.34,0,10.73-.88,17.57-2.64,20.52-2,3.44-6.58,5.16-13.74,5.16-3.58,0-6.89-.53-9.92-1.6-2.49-5.41-3.73-17.61-3.73-36.61,0-10.65,.39-18.47,1.18-23.47,.73-1.06,3.28-2.17,7.64-3.32-4.43-.9-7.43-2.83-9.01-5.77-1.09-2.05-1.64-5.28-1.64-9.71,0-2.95,.55-5.53,1.64-7.74,1.21-2.54,7.59-5.31,9.71-5.31"/><path class="cls-2" d="M363.89,130.91c0,13.68-3.19,24.08-9.56,31.21-5.46,6.06-13.59,10.03-24.39,11.92-.85,.17-1.67,.37-2.46,.61-1.21,.41-2.22,1.03-3,1.84-.18,6.72,.21,13.19,1.18,19.41l1.55,9.95c0,1.88-.97,3.07-2.91,3.56-1.4,.33-5.25,.49-11.56,.49-.73,0-1.84,.18-3.32,.55-1.49,.37-2.59,.55-3.32,.55-2.12,0-4.19-.12-6.19-.37-4.73-12.29-7.77-31.13-9.1-56.52-.49-8.93-.76-16.22-.82-21.87-.06-4.01-.06-9.22,0-15.6l.09-9.22c4.43-4.42,11.71-8.31,21.84-11.67,9.22-3.11,17.08-4.67,23.57-4.67,9.89,0,17.14,3.36,21.75,10.08,4.43,6.39,6.64,16.3,6.64,29.73Zm-27.58,9.09c0-2.38-.98-4.3-2.93-5.77-1.71-1.23-3.51-1.84-5.4-1.84-1.65,0-4.12,1.39-7.41,4.18v6.64c1.16,2.87,3.63,4.3,7.41,4.3,5.55,0,8.33-2.5,8.33-7.5Z"/><path class="cls-2" d="M378.35,179.04l3.9,.53c1.51,1.48,6.3,5.59,6.3,9.62,0,12.09-4.13,17.93-12.38,17.52l-2.64-.12c-4.43-.91-7.43-2.84-9.01-5.8-1.09-2.06-1.64-5.31-1.64-9.75,0-2.96,.55-5.55,1.64-7.78,1.21-2.55,2.88-3.83,5.01-3.83m10.19-22.98,2.31,7.65c2.79,0,6.37,1.56,7.65-.24,1.09-3.03,3.21-19.33,4.06-29.16,.67-7.54,1-12.98,1-16.34,0-10.73-.88-17.57-2.64-20.52-2-3.44-6.58-5.16-13.74-5.16-3.58,0-6.89,.53-9.92,1.59-2.49,5.4-3.73,17.58-3.73,36.55,0,10.71,1.7,27.83,2.49,32.73,.73,1.06,3.73-1.05,8.09,.1m-8.84-4.63,6.75,20.03l-1.3,.26m8.46-1.72l-1.09-.25"/></svg>