<?xml version="1.0" encoding="UTF-8"?><svg xmlns="http://www.w3.org/2000/svg" viewBox="0 0 147.28 102.68"><defs><style>.cls-1{fill:#fff;}.cls-2{fill:#ffe8bd;}.cls-3,.cls-4,.cls-5{fill:#ece4c3;}.cls-6{fill:#e5b28e;}.cls-7{fill:#323234;}.cls-8{fill:#414248;}.cls-9{fill:#3f3c41;}.cls-10{fill:#623019;}.cls-11{fill:#4f5056;}.cls-12{fill:#505157;}.cls-4{opacity:.2;}.cls-4,.cls-5{mix-blend-mode:multiply;}.cls-5{opacity:.4;}.cls-13{isolation:isolate;}</style></defs><g class="cls-13"><g id="Layer_1"><g><g><path class="cls-12" d="M82.85,63.75c0,7.55,0,15.11,0,22.66v7.73c0,2.44,.32,4.97,.21,7.37,0,.22-.03,.44-.15,.62-.16,.24-.46,.33-.74,.39-.81,.17-1.64,.16-2.47,.14-.58-.02-1.2-.06-1.7-.36-1.06-.64-1.02-4.17-1.2-5.41-.31-2.16-.62-4.33-.93-6.49-.71-4.95-1.42-9.89-2.13-14.84-.56-3.94-1.13-7.88-1.69-11.81h10.8Z"/><path class="cls-9" d="M83,97.79c.07,1.26,.12,2.51,.07,3.73,0,.22-.03,.44-.15,.62-.16,.24-.46,.33-.74,.39-.81,.17-1.64,.16-2.47,.14-.58-.02-1.2-.06-1.7-.36-.75-.45-.95-2.34-1.07-3.86,2.03,0,4.08-.28,6.05-.67Z"/></g><g><path class="cls-12" d="M98.1,63.75v10.18c0,5.09,0,10.17,0,15.26v6.93c0,1.24,.61,5.19-.44,5.74-.45,.24-.99,.25-1.5,.26-.65,.01-1.3,.02-1.93-.13-2.49-.61-2.23-5.44-2.53-7.53-.49-3.42-.98-6.84-1.47-10.27-.98-6.81-1.95-13.62-2.93-20.44h10.8Z"/><path class="cls-9" d="M98.19,97.61c.12,1.65,.24,3.84-.53,4.23-.45,.24-.99,.25-1.5,.26-.65,.01-1.3,.02-1.93-.13-1.36-.33-1.9-1.92-2.16-3.64,1.97,.06,4.05-.28,6.11-.73Z"/></g><g><path class="cls-12" d="M36.35,63.75c0,7.55,0,15.11,0,22.66v7.73c0,2.44,.32,4.97,.21,7.37,0,.22-.03,.44-.15,.62-.16,.24-.46,.33-.74,.39-.81,.17-1.64,.16-2.47,.14-.58-.02-1.2-.06-1.7-.36-1.06-.64-1.02-4.17-1.2-5.41-.31-2.16-.62-4.33-.93-6.49-.71-4.95-1.42-9.89-2.13-14.84-.56-3.94-1.13-7.88-1.69-11.81h10.8Z"/><path class="cls-9" d="M36.53,98.45c.05,1.03,.08,2.06,.04,3.07,0,.22-.03,.44-.15,.62-.16,.24-.46,.33-.74,.39-.81,.17-1.64,.16-2.47,.14-.58-.02-1.2-.06-1.7-.36-.71-.43-.93-2.16-1.05-3.63,2.03,.21,4.07,.14,6.07-.23Z"/></g><g><path class="cls-12" d="M51.6,63.75v10.18c0,5.09,0,10.17,0,15.26v6.93c0,1.24,.61,5.19-.44,5.74-.45,.24-.99,.25-1.5,.26-.65,.01-1.3,.02-1.93-.13-2.49-.61-2.23-5.44-2.53-7.53-.49-3.42-.98-6.84-1.47-10.27l-2.93-20.44h10.8Z"/><path class="cls-9" d="M51.64,96.93c.12,1.65,.4,4.46-.48,4.92-.45,.24-.99,.25-1.5,.26-.65,.01-1.3,.02-1.93-.13-1.65-.4-2.09-2.65-2.29-4.73,2.07,.21,4.15,.1,6.2-.32Z"/></g><path class="cls-3" d="M107.03,25.5c-.22-1.85,1.26-3.92,.09-5.62-.54-.78-3.79-2.32-4.47-.96,.78-1.57,1.13-3.66-.08-4.92-1.26-1.31-3.41-.97-5.17-.52-.24-1.24,.35-2.63-.24-3.75-.56-1.07-2.02-1.39-3.18-1.03-1.16,.36-2.08,1.22-2.95,2.05,.23-1.52-.17-3.19-1.28-4.24-1.11-1.06-3-1.32-4.21-.39-1.29,.99-1.59,2.97-2.99,3.79-.34-1.45-.88-3.14-2.3-3.59-1.1-.35-2.32,.24-3.05,1.13-.73,.89-1.08,2.02-1.41,3.12-.94-.96-.75-2.54-1.39-3.72-.74-1.36-2.57-1.9-4.04-1.41-1.47,.49-2.55,1.82-3.03,3.29,.04-1.89-1.48-3.75-3.37-3.89s-3.73,1.67-3.44,3.54c-.11-2.05-2.37-3.69-4.35-3.14-1.98,.54-3.09,3.11-2.14,4.92-.87-1-1.77-2.02-2.9-2.72s-2.57-1.03-3.81-.57c-.48,.18-.94,.5-1.17,.96-.17,.35-.21,.74-.22,1.13-.03,1.26,.18,2.52,.61,3.71-.59-.87-1.18-1.76-2.01-2.41-.83-.65-1.93-1.03-2.94-.75-1.15,.33-1.67,1.39-1.8,2.48-.08,.63,.11,1.29,.06,1.96-.04,.43-.46,1.36-.32,1.75-.55-1.62-1.42-3.13-2.53-4.42-.48-.56-1.04-1.1-1.76-1.24-.89-.18-1.82,.33-2.35,1.06-.54,.73-.75,1.65-.86,2.55-.15,1.28-.12,2.59,.1,3.86-.79-1.17-.83-2.67-1.11-4.05-.28-1.38-1.03-2.89-2.42-3.18-1.65-.35-3.07,1.24-3.67,2.82-.6,1.57-.83,3.36-1.97,4.6-.08-1.67-.37-3.33-.87-4.93-.16-.52-.36-1.05-.76-1.41-.49-.45-1.21-.57-1.87-.51-2.07,.18-3.76,1.89-4.48,3.83-.72,1.94-.64,4.09-.43,6.15-1.19-1.13-2.66-2.04-4.28-2.29-2.49-.38-6.11,1.4-4.53,4.39,.46,.87,1.25,1.53,2.04,2.12,1.09,.81,2.23,1.55,3.41,2.22-1.68-.17-3.42-.33-5,.26-1.58,.58-2.94,2.13-2.72,3.81,.15,1.13,.99,2.09,1.98,2.66,.99,.57,2.13,.83,3.24,1.08-2.54-.03-5.28,0-7.32,1.51-.85,.63-1.57,1.66-1.3,2.69,.32,1.23,1.8,1.69,3.05,1.95,1.58,.32,3.15,.64,4.73,.96-1.93-.44-4.11,0-5.51,1.41s-1.78,3.81-.65,5.43c.95,1.36,2.66,1.93,4.27,2.35-1.71,.29-3.33,1.38-4,2.99-.67,1.6-.22,3.67,1.21,4.66,1.36,.95,2.93,.66,4.43,.3,1.49-.36,2.9-.48,4.38-1.01-.58,1.09-1.33,2.12-1.67,3.31s-.15,2.66,.86,3.38c.7,.5,1.63,.54,2.49,.52,1.13-.02,2.26-.1,3.39-.24,.65-.08,2.35-.68,2.91-.36,.69,.39,.13,1.61,0,2.17-.18,.83-.34,1.74,.16,2.5,.61,.94,1.91,1.13,3.02,.98,1.14-.15,2.25-.57,3.21-1.22-.73,2.32,1.38,4.94,3.81,5.03,2.43,.1,4.63-1.99,5.03-4.39,.45,1.09,.9,2.2,1.63,3.13,.73,.93,1.78,1.67,2.96,1.74,1.7,.11,3.24-1.19,4.3-2.39,.89-1,2.67-2.96,2.42-4.38,.81,1.27-.16,2.94,.61,4.26,.47,.81,1.46,1.18,2.4,1.19,1.32,.02,2.63-.6,3.46-1.63,.83-1.03,1.15-2.44,.85-3.72,.36,1.56,1.07,4.71,2.78,5.37,2.11,.82,4.03-1.83,4.95-3.38,.16,.95,.34,1.93,.81,2.77,.47,.85,1.3,1.55,2.26,1.61,.97,.06,1.89-.57,2.42-1.38,.5-.76,.65-1.65,.89-2.49,.39,.98,.36,2.11,.71,3.12,.37,1.1,1.33,2.15,2.48,2.03,.97-.1,1.69-1.04,1.86-2.01,.15-.82-.35-1.9-.13-2.59,.37,.75,.47,1.62,.93,2.36,.51,.82,1.36,1.49,2.32,1.53,1.07,.05,1.74-.73,2.12-1.63,.2-.46,.71-2.66,.34-3.05,1.22,1.24,.2,3.89,1.73,4.73,.69,.38,1.59,.11,2.16-.42s.9-1.28,1.21-2c.39-.89,.77-1.78,1.16-2.68-.14,.91-.28,1.84-.13,2.75,.16,.91,.67,1.81,1.51,2.19s2,.05,2.33-.81c.13-.35,.12-.74,.11-1.12-.07-1.86-.14-3.73-.2-5.59,.51,1.17,1.02,2.33,1.52,3.5,.13,.3,.27,.61,.52,.82,.61,.52,1.61,.21,2.12-.41,.5-.62,.66-1.45,.88-2.22,.21-.77,.55-1.59,1.25-1.99,.16,.92-.11,1.88,.07,2.79,.18,.92,1.18,1.8,1.99,1.34,.3-.17,.48-.48,.66-.78,.67-1.14,1.33-2.28,2-3.42-.27,1.01-.54,2.12-.13,3.08,.41,.97,1.82,1.54,2.53,.77,.3-.32,.4-.78,.49-1.21,.35-1.75,.7-3.5,1.06-5.25,.27,1.27,.67,2.52,1.17,3.72,.16,.38,.4,.81,.82,.86,.46,.05,.79-.4,1.01-.81,.85-1.61,1.4-3.38,1.59-5.2-.18,1.22-.34,2.54,.25,3.62,.59,1.08,2.28,1.6,3.07,.66,.03-2.21-.23-4.42-.77-6.57,1.47,.64,2.14,2.7,3.73,2.86,1.26,.13,2.31-1.14,2.41-2.4,.13-1.54-.82-2.77-.72-4.23,.1-1.43,.5-2.83,.56-4.28,.11-2.93-.31-5.86-1.03-8.69-1.45-5.7-4.1-11.05-7.13-16.06-.37-.61-.88-1.22-1.17-1.86-.09-.21-.15-.41-.17-.62Z"/><path class="cls-4" d="M96.27,55.67c.05,.39,.06,.79,.04,1.2-.12-.37-.15-.77-.04-1.2Z"/><path class="cls-4" d="M33.74,56.51h.83c-.18,.63-.49,1.06-.9,1.35-.01-.47,.06-.99,.06-1.35Z"/><path class="cls-4" d="M64.49,59.64c.01-.22,.05-.43,.1-.64-.02,.22-.06,.43-.1,.64Z"/><path class="cls-5" d="M1.35,36.57c2.04-1.51,4.78-1.54,7.32-1.51-1.12-.25-2.25-.51-3.24-1.08-.99-.57-1.83-1.53-1.98-2.66-.22-1.67,1.14-3.22,2.72-3.81,1.58-.58,3.33-.42,5-.26-1.18-.67-2.32-1.41-3.41-2.22-.79-.59-1.58-1.24-2.04-2.12-1.05-1.98,.19-3.43,1.87-4.08-.99,.38,2.3,6.2,2.76,6.73,2.24,2.6,4.63,2.98,7.88,3.11-.95,1.6-3.4,1.66-4.5,3.16-1.1,1.5-.23,3.78,1.31,4.82,1.54,1.04,3.5,1.18,5.36,1.29-2.09,.72-3.95,2.1-5.23,3.89-.45,.62-.84,1.33-.86,2.09-.05,1.69,1.71,2.92,3.39,3.18,1.68,.26,3.39-.12,5.08,.07-.58,.98-1.5,1.71-2.16,2.63-.67,.92-1.06,2.22-.43,3.17,.75,1.13,2.46,1.08,3.7,.53,1.24-.54,2.37-1.44,3.71-1.62-1,1.87-1.6,4.44-.08,5.92,1.12,1.09,2.98,1.05,4.37,.34,1.39-.71,2.41-1.96,3.39-3.17-.66,1.4-.47,3.17,.49,4.39s2.64,1.82,4.15,1.49c2.45-.53,3.85-3.05,4.94-5.3-1.05,2.81,1.59,6.11,4.59,6.19,3,.08,5.66-2.48,6.28-5.41,.51,1.86,1.33,3.64,2.42,5.24,.39,.58,.84,1.15,1.44,1.51,1.57,.94,3.7,.08,4.8-1.38,1.09-1.46,1.4-3.34,1.68-5.15,.19,1.56,.39,3.17,1.17,4.54,.78,1.37,2.31,2.44,3.86,2.19,2.48-.39,3.35-3.45,3.69-5.93,.47,1.42,1.13,2.85,2.3,3.78,1.17,.94,2.94,1.25,4.17,.39,1.55-1.09,1.56-3.34,1.4-5.22,.63,1.79,.58,4.16,2.26,5.04,1.33,.7,3.06-.1,3.89-1.35,.83-1.25,1.01-2.82,1.15-4.32-.25,2.41,2.43,4.2,4.85,4.3,.44,.02,.94-.02,1.23-.36,.25-.29,.25-.71,.25-1.09-.02-1.18-.03-2.35-.05-3.52,1.47,2.18,5.38,1.86,6.47-.53,.83-1.8-.21-4.68,1.14-6.15,3.21,2.29,10.59,4.74,12.02-.98,.07-.27,.12-.54,.18-.81,.37,2.05,.56,4.13,.49,6.2-.05,1.45-.46,2.85-.56,4.28-.1,1.46,.84,2.69,.72,4.23-.11,1.26-1.15,2.54-2.41,2.4-1.59-.17-2.27-2.22-3.73-2.86,.53,2.15,.79,4.36,.77,6.57-.79,.95-2.47,.42-3.07-.66-.48-.88-.46-1.92-.34-2.94,.04-.23,.07-.45,.09-.68-.03,.22-.06,.45-.09,.68-.25,1.57-.76,3.11-1.5,4.51-.21,.4-.55,.86-1.01,.81-.41-.04-.66-.48-.82-.86-.51-1.2-.9-2.44-1.17-3.72-.35,1.75-.7,3.5-1.06,5.25-.09,.43-.19,.89-.49,1.21-.72,.76-2.13,.19-2.53-.77-.41-.97-.14-2.07,.13-3.08-.67,1.14-1.33,2.28-2,3.42-.17,.3-.36,.61-.66,.78-.81,.46-1.8-.42-1.99-1.34-.18-.92,.08-1.87-.07-2.79-.7,.4-1.03,1.21-1.25,1.99-.21,.77-.37,1.6-.88,2.22-.5,.62-1.51,.94-2.12,.41-.25-.21-.39-.52-.52-.82-.51-1.17-1.02-2.33-1.52-3.5,.07,1.86,.14,3.73,.2,5.59,.01,.38,.03,.77-.11,1.12-.33,.86-1.49,1.19-2.33,.81s-1.35-1.28-1.51-2.19c-.16-.91-.01-1.84,.13-2.75-.38,.89-.77,1.78-1.16,2.68-.31,.72-.64,1.46-1.21,2-.58,.53-1.48,.8-2.16,.42-1.52-.84-.51-3.49-1.73-4.73,.38,.38-.14,2.58-.34,3.05-.38,.9-1.05,1.68-2.12,1.63-.96-.05-1.81-.72-2.32-1.53-.46-.74-.56-1.62-.93-2.36-.22,.69,.27,1.77,.13,2.59-.17,.96-.89,1.9-1.86,2.01-1.15,.12-2.11-.94-2.48-2.03-.34-1.02-.32-2.14-.71-3.12-.24,.84-.4,1.73-.89,2.49-.53,.82-1.45,1.44-2.42,1.38-.96-.06-1.8-.76-2.26-1.61-.47-.85-.64-1.82-.81-2.77-.92,1.54-2.84,4.2-4.95,3.38-1.71-.66-2.42-3.82-2.78-5.37,.3,1.28-.03,2.7-.85,3.72-.83,1.03-2.14,1.65-3.46,1.63-.93-.01-1.93-.39-2.4-1.19-.77-1.32,.2-2.99-.61-4.26,.24,1.42-1.53,3.38-2.42,4.38-1.06,1.2-2.6,2.5-4.3,2.39-1.18-.08-2.23-.82-2.96-1.74-.73-.93-1.18-2.03-1.63-3.13-.4,2.4-2.6,4.48-5.03,4.39-2.43-.1-4.54-2.71-3.81-5.03-.96,.65-2.06,1.07-3.21,1.22-1.11,.15-2.41-.05-3.02-.98-.5-.76-.34-1.66-.16-2.5,.12-.56,.69-1.78,0-2.17-.56-.32-2.26,.29-2.91,.36-1.12,.13-2.26,.21-3.39,.24-.86,.02-1.79-.01-2.49-.52-1.01-.72-1.2-2.19-.86-3.38,.34-1.19,1.09-2.21,1.67-3.31-1.48,.54-2.88,.65-4.38,1.01-1.5,.36-3.07,.65-4.43-.3-1.43-.99-1.88-3.06-1.21-4.66,.67-1.6,2.29-2.69,4-2.99-1.61-.42-3.32-.99-4.27-2.35-1.13-1.62-.74-4.03,.65-5.43s3.58-1.85,5.51-1.41c-1.58-.32-3.15-.64-4.73-.96-1.25-.25-2.73-.71-3.05-1.95-.27-1.02,.45-2.06,1.3-2.69Z"/><path class="cls-4" d="M107.89,63.76c.03-.23,.06-.46,.09-.68-.02,.23-.06,.46-.09,.68Z"/><g><path class="cls-11" d="M130.3,36.91s14.17-6.67,16.88-4.59c.71,4.17-2.38,12.49-15.26,12.18l-1.62-7.6Z"/><path class="cls-8" d="M147.25,32.93c.33,4.31-3.04,11.88-15.33,11.58l-.81-3.79c6.59-.32,13-1.97,16.14-7.79Z"/><path class="cls-11" d="M95.79,36.91s-14.17-6.67-16.88-4.59c-.71,4.17,2.38,12.49,15.26,12.19l1.62-7.6Z"/><path class="cls-8" d="M94.76,41.74l-.59,2.78c-12.66,.3-15.86-7.74-15.29-11.97,2.69,6.42,9.24,9.38,15.88,9.19Z"/></g><g><path class="cls-11" d="M111.87,71.75c.1,0,.19,0,.28,0,.34,0,.68,0,1.01-.01,12.21-.53,20.07-13.62,18.87-34.72-.27-4.77-3.88-8.68-8.61-9.35-6.69-.95-16.55-1.51-24.54,1.49-9.75,8.06-4.91,42.08,12.99,42.6Z"/><g><path class="cls-1" d="M121.21,45.08c0,1.38,.88,2.5,1.96,2.5s1.96-1.12,1.96-2.5-.88-2.5-1.96-2.5-1.96,1.12-1.96,2.5Z"/><path class="cls-10" d="M121.95,45.08c0,.86,.55,1.55,1.22,1.55s1.22-.69,1.22-1.55-.55-1.55-1.22-1.55-1.22,.69-1.22,1.55Z"/><path class="cls-1" d="M122.37,45.08c0,.31,.2,.57,.44,.57s.44-.25,.44-.57c0-.31-.2-.57-.44-.57s-.44,.25-.44,.57Z"/><g><path class="cls-1" d="M100.95,45.08c0,1.38,.88,2.5,1.96,2.5s1.96-1.12,1.96-2.5-.88-2.5-1.96-2.5-1.96,1.12-1.96,2.5Z"/><path class="cls-10" d="M101.7,45.08c0,.86,.55,1.55,1.22,1.55s1.22-.69,1.22-1.55-.55-1.55-1.22-1.55-1.22,.69-1.22,1.55Z"/><path class="cls-1" d="M102.83,45.08c0,.31,.2,.57,.44,.57s.44-.25,.44-.57c0-.31-.2-.57-.44-.57s-.44,.25-.44,.57Z"/></g></g><g><path class="cls-7" d="M112.16,65.26v6.5c.34,0,.68,0,1.01-.01,.07-2.06-.12-6.49-.12-6.49h-.89Z"/><g><path class="cls-7" d="M113,66.41s2.98-1.2,2.48-4.22c0,0-3.26,3.28-3,3.7,.26,.42,.52,.52,.52,.52Z"/><path class="cls-7" d="M112.09,66.41s-2.98-1.2-2.48-4.22c0,0,3.26,3.28,3,3.7-.26,.42-.52,.52-.52,.52Z"/></g><path class="cls-2" d="M114.89,61.64c-.97,.36-2.74,.77-4.68,.03-.36-.14-.73,.18-.64,.55,.31,1.34,1.11,3.66,2.96,3.66s2.71-2.17,3-3.7c.07-.37-.29-.67-.64-.54Z"/></g><g><path class="cls-6" d="M98.57,49.99c0,.75,1.31,1.36,2.92,1.36s2.92-.61,2.92-1.36c0-.75-1.31-1.36-2.92-1.36s-2.92,.61-2.92,1.36Z"/><path class="cls-6" d="M121.68,49.99c0,.75,1.31,1.36,2.92,1.36s2.92-.61,2.92-1.36-1.31-1.36-2.92-1.36-2.92,.61-2.92,1.36Z"/></g></g><path class="cls-3" d="M133.75,30.45s6.22,7.92,0,8.75c-6.22,.83-8.61-2.92-8.61-2.92,0,0,.47,2.74-2.32,3.04-2.79,.3-3.83-4.44-3.83-4.44,0,0,.62,3.6-1.67,3.33-2.29-.27-3.55-5.06-3.55-5.06,0,0-.2,2.5-2.7,2.71-2.5,.21-2.71-3.95-2.71-3.95,0,0,.05,6.57-4.66,6.3-4.72-.27-2.74-4.85-2.74-4.85,0,0-1.06,2.71-5.17,3.54-2.42,.49-4.35-2.37-3.58-4.56,.41-1.17,1.39-2.05,2.47-2.66-1.46,.64-3.28,.36-4.48-.69-1.2-1.05-1.72-2.82-1.28-4.35,1.63-.33,3.3-.46,4.97-.39-1.21-.49-2.36-1.2-3.18-2.21s-1.3-2.35-1.09-3.64c.06-.4,.2-.8,.5-1.07,.3-.28,.73-.37,1.13-.42,1.3-.18,2.64-.06,3.89,.35-.57-1.2-1.58-2.12-2.25-3.27-.67-1.14-.89-2.76,.07-3.68,.72-.68,1.85-.72,2.8-.44,.95,.28,1.8,.83,2.72,1.2-2.22-2.1-3.98-5.16-3.25-8.13,.09-.37,.23-.74,.51-1,.21-.19,.49-.29,.77-.35,1.3-.29,2.69,.28,3.66,1.2,.97,.92,1.58,2.15,2.08,3.39,.16-1,.1-2.03,.35-3.02,.25-.98,.93-1.96,1.93-2.12,1.01-.17,1.97,.56,2.55,1.41s.9,1.85,1.49,2.69c-.09-1.29,.6-2.5,1.41-3.5,.64-.8,1.47-1.59,2.49-1.65,1.3-.08,2.39,1.06,2.82,2.29,.42,1.23,.37,2.56,.53,3.85,.52-.97,1.05-1.93,1.57-2.9,.37-.69,.81-1.43,1.55-1.7,1.17-.43,2.41,.61,2.84,1.78,.43,1.16,.36,2.46,.66,3.66,.58-1.18,1.16-2.36,1.74-3.55,.12-.24,.24-.48,.46-.64,.22-.15,.49-.19,.76-.21,.96-.06,1.98,.13,2.72,.74,1.72,1.42,.46,4.44-.69,5.86,0,0,4.43-3.96,6.34-.63,1.91,3.33-1.59,4.38-1.59,4.38,0,0,7.16,.21,7.94,2.08,.78,1.88-2.43,4.84-2.43,4.84,0,0,5.08,1.01,4.77,3.56-.42,3.48-7.73,2.64-7.73,2.64,0,0,7.75,1.02,6.03,4.17-1.72,3.15-6.98,.21-6.98,.21Z"/></g></g></g></svg>